<?xml version="1.0" encoding="UTF-8"?>
<svg xmlns="http://www.w3.org/2000/svg" xmlns:xlink="http://www.w3.org/1999/xlink" viewBox="0 0 48 48" width="48px" height="48px">
<g id="surface354194096">
<path style=" stroke:none;fill-rule:nonzero;fill:rgb(51.764709%,80.000001%,8.627451%);fill-opacity:1;" d="M 36 28 C 36 36.835938 28.835938 44 20 44 C 11.164062 44 4 36.835938 4 28 C 4 19.164062 11.164062 12 20 12 C 28.835938 12 36 19.164062 36 28 Z M 36 28 "/>
<path style=" stroke:none;fill-rule:nonzero;fill:rgb(96.078432%,73.725492%,0%);fill-opacity:1;" d="M 45.03125 17.476562 C 45.03125 24.90625 39.011719 30.925781 31.582031 30.925781 C 24.15625 30.925781 18.136719 24.90625 18.136719 17.476562 C 18.136719 10.050781 24.15625 4.027344 31.582031 4.027344 C 39.011719 4.027344 45.03125 10.050781 45.03125 17.476562 Z M 45.03125 17.476562 "/>
<path style=" stroke:none;fill-rule:nonzero;fill:rgb(51.764709%,80.000001%,8.627451%);fill-opacity:1;" d="M 4.070312 44 L 19.910156 44 L 10.921875 35.550781 Z M 4.070312 44 "/>
<path style=" stroke:none;fill-rule:nonzero;fill:rgb(52.941179%,86.274511%,4.313726%);fill-opacity:1;" d="M 20 12 C 19.761719 12 19.527344 12.023438 19.292969 12.035156 C 18.554688 13.699219 18.136719 15.539062 18.136719 17.480469 C 18.136719 24.90625 24.15625 30.929688 31.585938 30.929688 C 33.066406 30.929688 34.492188 30.679688 35.824219 30.234375 C 35.929688 29.503906 36 28.761719 36 28 C 36 19.164062 28.835938 12 20 12 Z M 20 12 "/>
<path style=" stroke:none;fill-rule:nonzero;fill:rgb(96.078432%,73.725492%,0%);fill-opacity:1;" d="M 44.976562 4.027344 L 31.660156 4.027344 L 39.214844 11.132812 Z M 44.976562 4.027344 "/>
</g>
</svg>
