<?xml version="1.0" encoding="UTF-8"?>
<svg xmlns="http://www.w3.org/2000/svg" xmlns:xlink="http://www.w3.org/1999/xlink" viewBox="0 0 240 240" width="240px" height="240px">
<g id="surface354194090">
<path style=" stroke:none;fill-rule:nonzero;fill:rgb(51.764709%,80.000001%,8.627451%);fill-opacity:1;" d="M 180 140 C 180 184.183594 144.183594 220 100 220 C 55.816406 220 20 184.183594 20 140 C 20 95.816406 55.816406 60 100 60 C 144.183594 60 180 95.816406 180 140 Z M 180 140 "/>
<path style=" stroke:none;fill-rule:nonzero;fill:rgb(96.078432%,73.725492%,0%);fill-opacity:1;" d="M 225.164062 87.390625 C 225.164062 124.527344 195.058594 154.636719 157.917969 154.636719 C 120.78125 154.636719 90.675781 124.527344 90.675781 87.390625 C 90.675781 50.25 120.78125 20.144531 157.917969 20.144531 C 195.058594 20.144531 225.164062 50.25 225.164062 87.390625 Z M 225.164062 87.390625 "/>
<path style=" stroke:none;fill-rule:nonzero;fill:rgb(51.764709%,80.000001%,8.627451%);fill-opacity:1;" d="M 20.351562 220 L 99.546875 220 L 54.609375 177.746094 Z M 20.351562 220 "/>
<path style=" stroke:none;fill-rule:nonzero;fill:rgb(52.941179%,86.274511%,4.313726%);fill-opacity:1;" d="M 100 60 C 98.804688 60 97.644531 60.125 96.460938 60.179688 C 92.765625 68.503906 90.675781 77.699219 90.675781 87.394531 C 90.675781 124.535156 120.78125 154.640625 157.921875 154.640625 C 165.339844 154.640625 172.453125 153.390625 179.128906 151.175781 C 179.644531 147.511719 180 143.800781 180 140 C 180 95.816406 144.183594 60 100 60 Z M 100 60 "/>
<path style=" stroke:none;fill-rule:nonzero;fill:rgb(96.078432%,73.725492%,0%);fill-opacity:1;" d="M 224.875 20.144531 L 158.304688 20.144531 L 196.074219 55.664062 Z M 224.875 20.144531 "/>
</g>
</svg>
